<svg width="27" height="27" viewBox="0 0 27 27" fill="none" xmlns="http://www.w3.org/2000/svg">
<rect width="27" height="27" fill="#F5F5F5"/>
<g clip-path="url(#clip0_0_1)">
<rect width="1515" height="1546" transform="translate(-340 -551)" fill="#F9FAFE"/>
<rect width="327.66" height="422.59" transform="translate(-181 -377)" fill="white"/>
<rect x="-96.17" y="-3.91003" width="159" height="33" rx="3.5" stroke="#7C7070"/>
<g clip-path="url(#clip1_0_1)">
<path d="M17.75 5.5L10.875 5.5C10.5208 5.5 10.1925 5.58875 9.89 5.76625C9.5875 5.94375 9.37417 6.18833 9.25 6.5L6.625 12.625C6.58333 12.7292 6.55208 12.8333 6.53125 12.9375C6.51042 13.0417 6.5 13.1458 6.5 13.25V14.25C6.5 14.6042 6.62 14.9013 6.86 15.1413C7.1 15.3813 7.39667 15.5008 7.75 15.5H13.5L12.75 19.75C12.7083 19.9583 12.7188 20.1562 12.7812 20.3438C12.8438 20.5312 12.9479 20.6979 13.0938 20.8438L14 21.75L19.75 15.5C19.9167 15.3333 20.0417 15.1458 20.125 14.9375C20.2083 14.7292 20.25 14.5 20.25 14.25V8C20.25 7.3125 20.005 6.72375 19.515 6.23375C19.025 5.74375 18.4367 5.49917 17.75 5.5ZM14 0.5C15.7292 0.5 17.3542 0.828335 18.875 1.485C20.3958 2.14167 21.7188 3.03208 22.8437 4.15625C23.9687 5.28125 24.8592 6.60417 25.515 8.125C26.1708 9.64583 26.4992 11.2708 26.5 13C26.5 14.7292 26.1717 16.3542 25.515 17.875C24.8583 19.3958 23.9679 20.7188 22.8437 21.8437C21.7188 22.9687 20.3958 23.8592 18.875 24.515C17.3542 25.1708 15.7292 25.4992 14 25.5C12.2708 25.5 10.6458 25.1717 9.125 24.515C7.60417 23.8583 6.28125 22.9679 5.15625 21.8437C4.03125 20.7187 3.14042 19.3958 2.48375 17.875C1.82709 16.3542 1.49917 14.7292 1.5 13C1.5 11.2708 1.82833 9.64583 2.485 8.125C3.14167 6.60417 4.03208 5.28125 5.15625 4.15625C6.28125 3.03125 7.60417 2.14042 9.125 1.48375C10.6458 0.827085 12.2708 0.499166 14 0.5Z" fill="#AFAFAF"/>
</g>
</g>
<defs>
<clipPath id="clip0_0_1">
<rect width="1515" height="1546" fill="white" transform="translate(-340 -551)"/>
</clipPath>
<clipPath id="clip1_0_1">
<rect width="27" height="27" fill="white" transform="matrix(-1 0 0 -1 27 27)"/>
</clipPath>
</defs>
</svg>
