<svg width="27" height="27" viewBox="0 0 27 27" fill="none" xmlns="http://www.w3.org/2000/svg">
<rect width="27" height="27" fill="#F5F5F5"/>
<g clip-path="url(#clip0_0_1)">
<rect width="1515" height="1546" transform="translate(-279 -551)" fill="#F9FAFE"/>
<rect width="327.66" height="422.59" transform="translate(-120 -377)" fill="white"/>
<rect x="-35.17" y="-3.91003" width="159" height="33" rx="3.5" stroke="#7C7070"/>
<g clip-path="url(#clip1_0_1)">
<path d="M10.25 20.5H17.125C17.4792 20.5 17.8075 20.4113 18.11 20.2338C18.4125 20.0563 18.6258 19.8117 18.75 19.5L21.375 13.375C21.4167 13.2708 21.4479 13.1667 21.4688 13.0625C21.4896 12.9583 21.5 12.8542 21.5 12.75V11.75C21.5 11.3958 21.38 11.0987 21.14 10.8587C20.9 10.6187 20.6033 10.4992 20.25 10.5H14.5L15.25 6.25C15.2917 6.04167 15.2813 5.84375 15.2188 5.65625C15.1562 5.46875 15.0521 5.30208 14.9062 5.15625L14 4.25L8.25 10.5C8.08333 10.6667 7.95833 10.8542 7.875 11.0625C7.79167 11.2708 7.75 11.5 7.75 11.75V18C7.75 18.6875 7.995 19.2763 8.485 19.7663C8.975 20.2563 9.56333 20.5008 10.25 20.5ZM14 25.5C12.2708 25.5 10.6458 25.1717 9.125 24.515C7.60417 23.8583 6.28125 22.9679 5.15625 21.8438C4.03125 20.7188 3.14083 19.3958 2.485 17.875C1.82917 16.3542 1.50083 14.7292 1.5 13C1.5 11.2708 1.82833 9.64583 2.485 8.125C3.14167 6.60417 4.03208 5.28125 5.15625 4.15625C6.28125 3.03125 7.60417 2.14083 9.125 1.485C10.6458 0.829167 12.2708 0.500833 14 0.5C15.7292 0.5 17.3542 0.828333 18.875 1.485C20.3958 2.14167 21.7188 3.03208 22.8438 4.15625C23.9688 5.28125 24.8596 6.60417 25.5162 8.125C26.1729 9.64583 26.5008 11.2708 26.5 13C26.5 14.7292 26.1717 16.3542 25.515 17.875C24.8583 19.3958 23.9679 20.7188 22.8438 21.8438C21.7188 22.9688 20.3958 23.8596 18.875 24.5162C17.3542 25.1729 15.7292 25.5008 14 25.5Z" fill="#FFD233"/>
</g>
</g>
<defs>
<clipPath id="clip0_0_1">
<rect width="1515" height="1546" fill="white" transform="translate(-279 -551)"/>
</clipPath>
<clipPath id="clip1_0_1">
<rect width="27" height="27" fill="white"/>
</clipPath>
</defs>
</svg>
